# 3ds Max Wavefront OBJ Exporter v0.97b - (c)2007 guruware
# File Created: 19.02.2023 20:21:23

mtllib prism.mtl

#
# object Gengon001
#

v  7.6919 2.0000 0.0000
v  8.7852 2.0000 -0.3544
v  7.6926 2.0000 -1.1493
v  6.5991 2.0000 -0.3559
v  7.0157 2.0000 0.9294
v  8.3668 2.0000 0.9302
v  8.7852 0.0000 -0.3544
v  7.6926 0.0000 -1.1493
v  6.5991 0.0000 -0.3559
v  7.0157 -0.0000 0.9294
v  8.3668 -0.0000 0.9302
v  7.6919 0.0000 0.0000
# 12 vertices

vn 0.0000 1.0000 0.0000
vn 0.5883 0.0000 -0.8086
vn -0.5873 0.0000 -0.8094
vn -0.9513 -0.0000 0.3084
vn -0.0007 -0.0000 1.0000
vn 0.9509 -0.0000 0.3096
vn -0.0000 -1.0000 -0.0000
# 7 vertex normals

vt 0.5000 0.5000 0.0000
vt 1.0000 0.5000 0.0000
vt 0.6545 0.9755 0.0000
vt 0.0955 0.7939 0.0000
vt 0.0955 0.2061 0.0000
vt 0.6545 0.0245 0.0000
vt 0.0000 1.0000 0.0000
vt 0.0000 0.0000 0.0000
vt 0.2000 0.0000 0.0000
vt 0.2000 1.0000 0.0000
vt 0.4000 0.0000 0.0000
vt 0.4000 1.0000 0.0000
vt 0.6000 0.0000 0.0000
vt 0.6000 1.0000 0.0000
vt 0.8000 0.0000 0.0000
vt 0.8000 1.0000 0.0000
vt 1.0000 0.0000 0.0000
vt 1.0000 1.0000 0.0000
# 18 texture coords

g Gengon001
usemtl wire_006135006
s off
f 1/1/1 2/2/1 3/3/1 
f 1/1/1 3/3/1 4/4/1 
f 1/1/1 4/4/1 5/5/1 
f 1/1/1 5/5/1 6/6/1 
f 1/1/1 6/6/1 2/2/1 
f 2/7/2 7/8/2 8/9/2 3/10/2 
f 3/10/3 8/9/3 9/11/3 4/12/3 
f 4/12/4 9/11/4 10/13/4 5/14/4 
f 5/14/5 10/13/5 11/15/5 6/16/5 
f 6/16/6 11/15/6 7/17/6 2/18/6 
f 7/2/7 12/1/7 8/3/7 
f 8/3/7 12/1/7 9/4/7 
f 9/4/7 12/1/7 10/5/7 
f 10/5/7 12/1/7 11/6/7 
f 11/6/7 12/1/7 7/2/7 
# 5 polygons - 10 triangles

